---
config:
  # mermaid: config begin
  theme: "base"
  themeVariables:
    background: "#ffffff"
    primaryColor: "#ffccd5"
    primaryTextColor: "#333e48"
    primaryBorderColor: "#9e1b32"
    secondaryColor: "#cdf3ff"
    secondaryTextColor: "#333e48"
    secondaryBorderColor: "#007298"
    tertiaryColor: "#e7e7e7"
    tertiaryTextColor: "#333e48"
    tertiaryBorderColor: "#9c9c9c"
    lineColor: "#696969"
    textColor: "#333e48"
    mainBkg: "#cdf3ff"
    nodeBkg: "#cdf3ff"
    nodeBorder: "#9e1b32"
    clusterBkg: "#e7e7e7"
    clusterBorder: "#9c9c9c"
    defaultLinkColor: "#696969"
    edgeLabelBackground: "#ffffff"
    classText: "#333e48"
    transitionColor: "#696969"
    stateLabelColor: "#333e48"
    stateBkg: "#cdf3ff"
    labelBackgroundColor: "#cdf3ff"
    compositeBackground: "#cdf3ff"
    altBackground: "#ffe5cc"
    compositeTitleBackground: "#cdf3ff"
    compositeBorder: "#007298"
    labelColor: "#333e48"
    titleColor: "#333e48"
  # mermaid: config end

# mermaid: metadata begin
mermaid:
  colorset: "colorset2"
  mode: "extended"
  palette: "full-color-style"
# mermaid: metadata end
---
stateDiagram-v2
  direction LR
  [*] --> Draft
  Draft --> Review
  Review --> Done
  Done --> [*]
