---
config:
  # mermaid: config begin
  theme: "base"
  themeVariables:
    background: "#ffffff"
    primaryColor: "#ffccd5"
    primaryTextColor: "#333e48"
    primaryBorderColor: "#9e1b32"
    secondaryColor: "#e7e7e7"
    secondaryTextColor: "#333e48"
    secondaryBorderColor: "#4f4f4f"
    tertiaryColor: "#e7e7e7"
    tertiaryTextColor: "#333e48"
    tertiaryBorderColor: "#9c9c9c"
    lineColor: "#696969"
    textColor: "#333e48"
    mainBkg: "#ffccd5"
    nodeBkg: "#ffccd5"
    nodeBorder: "#9e1b32"
    clusterBkg: "#e7e7e7"
    clusterBorder: "#9c9c9c"
    defaultLinkColor: "#696969"
    edgeLabelBackground: "#ffffff"
    classText: "#333e48"
    transitionColor: "#696969"
    stateLabelColor: "#333e48"
    stateBkg: "#ffccd5"
    labelBackgroundColor: "#ffccd5"
    compositeBackground: "#e7e7e7"
    altBackground: "#cfcfcf"
    compositeTitleBackground: "#ffccd5"
    compositeBorder: "#9e1b32"
    labelColor: "#333e48"
    titleColor: "#333e48"
  # mermaid: config end

# mermaid: metadata begin
mermaid:
  colorset: "colorset1"
  mode: "standard"
  palette: "basic-red-neutral-style"
# mermaid: metadata end
---
stateDiagram-v2
  direction LR
  [*] --> Draft
  Draft --> Review
  Review --> Done
  Done --> [*]
